<?xml version="1.0" encoding="UTF-8"?>
<svg id="Layer_2" data-name="Layer 2" xmlns="http://www.w3.org/2000/svg" xmlns:xlink="http://www.w3.org/1999/xlink" viewBox="0 0 83.25 27">
  <defs>
    <style>
      .cls-1 {
        fill: #fff;
      }

      .cls-2 {
        fill: #fb5f49;
      }

      .cls-3 {
        clip-path: url(#clippath);
      }

      .cls-4 {
        fill: none;
      }
    </style>
    <clipPath id="clippath">
      <rect class="cls-4" width="83.25" height="27"/>
    </clipPath>
  </defs>
  <g id="Layer_1-2" data-name="Layer 1">
    <g class="cls-3">
      <path class="cls-2" d="M2.84,13.48C2.84,7.61,7.6,2.85,13.47,2.85s10.63,4.76,10.63,10.63-4.76,10.63-10.63,10.63S2.84,19.36,2.84,13.48"/>
      <path class="cls-2" d="M70.11,.02H13.47C6.03,.02,0,6.05,0,13.48s6.03,13.47,13.47,13.47h56.64c7.44,0,13.47-6.03,13.47-13.47S77.55,.02,70.11,.02M1.5,13.48C1.5,6.87,6.86,1.51,13.47,1.51s11.97,5.36,11.97,11.97-5.36,11.97-11.97,11.97S1.5,20.1,1.5,13.48Z"/>
      <path class="cls-1" d="M13.47,1.52C6.86,1.52,1.51,6.88,1.51,13.48s5.35,11.96,11.96,11.96,11.96-5.36,11.96-11.96S20.07,1.52,13.47,1.52m0,22.59c-5.87,0-10.63-4.76-10.63-10.63S7.6,2.85,13.47,2.85s10.63,4.76,10.63,10.63-4.76,10.63-10.63,10.63Z"/>
      <path class="cls-1" d="M32.75,9.61h2.24c1.28,0,2.01,.73,2.01,1.94,0,1-.48,1.46-.91,1.62,.56,.22,1.15,.73,1.15,1.91,0,1.44-.92,2.27-2.28,2.27h-2.2v-7.74m1.92,3.14c.9,0,1.17-.37,1.17-1.09s-.37-1.08-1.1-1.08h-.81v2.17h.74Zm-.74,3.66h.9c.77,0,1.2-.42,1.2-1.34s-.4-1.36-1.35-1.36h-.74v2.7Z"/>
      <path class="cls-1" d="M42.9,13.42c0,2.77-.72,4.06-2.47,4.06-1.64,0-2.4-1.27-2.4-4.07s.89-3.92,2.46-3.92c1.66,0,2.41,1.26,2.41,3.93m-3.64-.02c0,1.96,.34,3.06,1.2,3.06s1.2-1.04,1.2-3.06-.32-2.89-1.21-2.89-1.19,1.02-1.19,2.88Z"/>
      <path class="cls-1" d="M48.7,13.42c0,2.77-.72,4.06-2.47,4.06-1.64,0-2.4-1.27-2.4-4.07s.89-3.92,2.46-3.92c1.66,0,2.41,1.26,2.41,3.93m-3.64-.02c0,1.96,.34,3.06,1.2,3.06s1.2-1.04,1.2-3.06-.32-2.89-1.21-2.89-1.19,1.02-1.19,2.88Z"/>
      <path class="cls-1" d="M49.84,9.61h1.19v3.59c.47-.73,1.55-2.54,2.24-3.59h1.38l-2.07,3.06,2.12,4.68h-1.34l-1.6-3.68-.73,1.01v2.67h-1.19v-7.74"/>
      <path class="cls-1" d="M57.37,17.35v-7.74h1.39c1.78,4.65,2.09,5.43,2.18,5.8h.01c-.06-.97-.07-2.12-.07-3.38v-2.42h1.09v7.74h-1.34c-1.85-4.93-2.14-5.71-2.23-6.05h-.01c.06,.96,.06,2.14,.06,3.53v2.52h-1.09"/>
      <path class="cls-1" d="M67.97,13.42c0,2.77-.72,4.06-2.47,4.06-1.64,0-2.4-1.27-2.4-4.07s.89-3.92,2.46-3.92c1.66,0,2.41,1.26,2.41,3.93m-3.64-.02c0,1.96,.34,3.06,1.2,3.06s1.2-1.04,1.2-3.06-.32-2.89-1.21-2.89-1.2,1.02-1.2,2.88Z"/>
      <path class="cls-1" d="M71.21,17.35h-1.2l-1.49-7.74h1.28c.36,2.14,.78,4.75,.88,6.07h.01c.2-1.35,.84-4.33,1.17-6.07h1.09c.31,1.61,.95,4.69,1.13,6.01h.02c.17-1.53,.72-4.43,.96-6.01h1.2l-1.6,7.74h-1.21c-.31-1.67-.9-4.41-1.09-5.79h-.02c-.21,1.43-.81,4.21-1.13,5.79h0"/>
      <path class="cls-1" d="M15.91,12.85l-.63-.63h0s-2.98-2.98-2.98-2.98c-.35-.35-.92-.35-1.27,0-.35,.35-.35,.92,0,1.27l2.98,2.98-2.98,2.98c-.35,.35-.35,.92,0,1.27,.35,.35,.92,.35,1.27,0l2.98-2.98h0s.63-.63,.63-.63c.18-.18,.26-.41,.26-.64s-.09-.46-.26-.64"/>
    </g>
  </g>
</svg>