<svg width="93" height="83" viewBox="0 0 93 83" fill="none" xmlns="http://www.w3.org/2000/svg">
<g id="calendar" clip-path="url(#clip0_8_76)">
<g id="Layer 1">
<g id="Clip path group">
<mask id="mask0_8_76" style="mask-type:luminance" maskUnits="userSpaceOnUse" x="0" y="-11" width="93" height="94">
<g id="clippath">
<path id="Vector" d="M93 -10.4043H0V82.5957H93V-10.4043Z" fill="white"/>
</g>
</mask>
<g mask="url(#mask0_8_76)">
<g id="Group">
<path id="Vector_2" d="M73.1453 19.5903H9.9126V64.8504C9.9126 67.0064 11.6644 68.7582 13.8204 68.7582H69.2374C71.3935 68.7582 73.1453 67.0064 73.1453 64.8504V19.5903Z" fill="#69C1B6"/>
<path id="Vector_3" d="M69.2374 5.60986H13.8204C11.6644 5.60986 9.9126 7.36165 9.9126 9.51769V19.6073H73.1453V9.51769C73.1453 7.36165 71.3935 5.60986 69.2374 5.60986Z" fill="#EEB2C5"/>
<path id="Vector_4" d="M20.6086 59.9319H62.4493" stroke="#2F6660" stroke-width="0.686619" stroke-linecap="round" stroke-linejoin="round"/>
<path id="Vector_5" d="M20.9623 54.5922C20.0527 54.5922 19.6484 54.1879 19.6484 53.2783V46.9787C19.6484 41.3022 22.0235 39.9884 25.3923 38.9609L30.2939 37.4281C31.0687 37.2091 31.2877 36.9227 31.2877 36.1142C31.2877 35.3899 31.035 35.171 30.2939 35.171H22.3603C21.4508 35.171 21.0465 34.7667 21.0465 33.8571V29.5787C21.0465 28.6691 21.4508 28.2649 22.3603 28.2649H33.1574C37.3347 28.2649 39.5918 30.3872 39.5918 34.3456V37.7818C39.5918 41.4706 37.4358 43.1551 33.8817 44.2499L28.9127 45.8164C28.1884 46.0354 27.9694 46.1028 27.9694 46.9113V47.6861H38.3959C39.3055 47.6861 39.7097 48.0904 39.7097 49V53.2783C39.7097 54.1879 39.3055 54.5922 38.3959 54.5922H20.9791H20.9623Z" fill="white"/>
<path id="Vector_6" d="M44.8135 54.5587C43.904 54.5587 43.4997 54.1545 43.4997 53.2449V48.9665C43.4997 48.0569 43.904 47.6527 44.8135 47.6527H54.2462C54.8358 47.6527 55.24 47.4 55.24 46.8105V45.3787C55.24 44.7892 54.8358 44.5365 54.2462 44.5365H45.1673C44.2577 44.5365 43.8534 44.1323 43.8534 43.2227V29.5453C43.8534 28.6357 44.2577 28.2314 45.1673 28.2314H60.9333C61.8429 28.2314 62.2472 28.6357 62.2472 29.5453V33.8911C62.2472 34.8006 61.8429 35.2049 60.9333 35.2049H52.1576V37.5799H57.1771C61.1354 37.5799 63.5778 39.517 63.5778 43.3911V48.478C63.5778 52.2174 60.8323 54.5587 56.4359 54.5587H44.7967H44.8135Z" fill="white"/>
<path id="Vector_7" d="M16.9533 12.5833C15.9763 12.5833 15.2015 11.7916 15.2015 10.8315V2.10628C15.2015 1.12932 15.9931 0.354492 16.9533 0.354492C17.9134 0.354492 18.705 1.14616 18.705 2.10628V10.8315C18.705 11.8085 17.9134 12.5833 16.9533 12.5833Z" fill="#F0444E"/>
<path id="Vector_8" d="M41.5291 12.6001C40.5521 12.6001 39.7773 11.8085 39.7773 10.8484V2.10628C39.7773 1.12932 40.569 0.354492 41.5291 0.354492C42.4892 0.354492 43.2809 1.14616 43.2809 2.10628V10.8484C43.2809 11.8253 42.4892 12.6001 41.5291 12.6001Z" fill="#F0444E"/>
<path id="Vector_9" d="M66.1212 12.6001C65.1443 12.6001 64.3694 11.8085 64.3694 10.8484V2.10628C64.3694 1.12932 65.1611 0.354492 66.1212 0.354492C67.0813 0.354492 67.873 1.14616 67.873 2.10628V10.8484C67.873 11.8253 67.0813 12.6001 66.1212 12.6001Z" fill="#F0444E"/>
<path id="Vector_10" d="M3.09071 67.0738L5.2299 65.9958L3.17493 64.783L2.09691 62.6606L0.884132 64.7156L-1.25507 65.7936L0.799912 67.0064L1.87793 69.1288L3.09071 67.0738Z" fill="white"/>
<path id="Vector_11" d="M2.83813 75.9C2.83813 75.0073 2.11383 74.283 1.2211 74.283C0.32836 74.283 -0.395935 75.0073 -0.395935 75.9C-0.395935 76.7927 0.32836 77.517 1.2211 77.517C2.11383 77.517 2.83813 76.7927 2.83813 75.9Z" fill="white"/>
<path id="Vector_12" d="M11.1593 76.5401L13.4669 76.1527L11.9004 74.4177L11.513 72.127L9.77804 73.6935L7.4704 74.0809L9.0369 75.799L9.42431 78.1066L11.1593 76.5401Z" fill="white"/>
</g>
</g>
</g>
</g>
</g>
<defs>
<clipPath id="clip0_8_76">
<rect width="93" height="82" fill="white" transform="translate(0 0.595703)"/>
</clipPath>
</defs>
</svg>
