<?xml version="1.0" encoding="UTF-8"?>
<svg id="Layer_2" data-name="Layer 2" xmlns="http://www.w3.org/2000/svg" xmlns:xlink="http://www.w3.org/1999/xlink" viewBox="0 0 15.75 18.75">
  <defs>
    <style>
      .cls-1 {
        clip-path: url(#clippath);
      }

      .cls-2 {
        fill: none;
      }

      .cls-3 {
        fill: #b4b3bd;
      }
    </style>
    <clipPath id="clippath">
      <rect class="cls-2" width="15.75" height="18.75"/>
    </clipPath>
  </defs>
  <g id="Layer_1-2" data-name="Layer 1">
    <g class="cls-1">
      <path class="cls-3" d="M4.52,5.45c0,.27,.22,.49,.49,.49h4.6c.27,0,.49-.22,.49-.49s-.22-.49-.49-.49H5.01c-.27,0-.49,.22-.49,.49Z"/>
      <path class="cls-3" d="M3.14,5.94h.37c.27,0,.49-.22,.49-.49s-.22-.49-.49-.49h-.37c-.27,0-.49,.22-.49,.49s.22,.49,.49,.49Z"/>
      <path class="cls-3" d="M9.61,7.52H5.01c-.27,0-.49,.22-.49,.49s.22,.49,.49,.49h4.6c.27,0,.49-.22,.49-.49s-.22-.49-.49-.49Z"/>
      <path class="cls-3" d="M3.14,8.51h.37c.27,0,.49-.22,.49-.49s-.22-.49-.49-.49h-.37c-.27,0-.49,.22-.49,.49s.22,.49,.49,.49Z"/>
      <path class="cls-3" d="M9.61,10.09H5.01c-.27,0-.49,.22-.49,.49s.22,.49,.49,.49h4.6c.27,0,.49-.22,.49-.49s-.22-.49-.49-.49Z"/>
      <path class="cls-3" d="M3.14,11.07h.37c.27,0,.49-.22,.49-.49s-.22-.49-.49-.49h-.37c-.27,0-.49,.22-.49,.49s.22,.49,.49,.49Z"/>
      <path class="cls-3" d="M7.37,12.65h-2.36c-.27,0-.49,.22-.49,.49s.22,.49,.49,.49h2.43c-.05-.09-.09-.19-.11-.29-.06-.23-.04-.47,.04-.69Z"/>
      <path class="cls-3" d="M3.14,13.63h.37c.27,0,.49-.22,.49-.49s-.22-.49-.49-.49h-.37c-.27,0-.49,.22-.49,.49s.22,.49,.49,.49Z"/>
      <path class="cls-3" d="M.98,15.49V3.1h1.27v-.98H.49C.22,2.12,0,2.34,0,2.61V15.98c0,.27,.22,.49,.49,.49H7.19c-.06-.12-.09-.25-.1-.39-.02-.2,.03-.41,.11-.59H.98Z"/>
      <path class="cls-3" d="M11.77,11.58l.6,.11,.38-.38V2.61c0-.27-.22-.49-.49-.49h-1.76v.98h1.27V11.58Z"/>
      <path class="cls-3" d="M6.38,2.33c-.38,0-.68-.3-.68-.68s.3-.68,.68-.68,.68,.3,.68,.68c0,.38-.3,.68-.68,.68Zm3.14-.51c0-.31-.25-.56-.56-.56h-.98C7.8,.54,7.15,0,6.38,0s-1.42,.54-1.6,1.25h-.98c-.31,0-.56,.25-.56,.56v1.28h6.29V1.82Z"/>
      <path class="cls-3" d="M15.69,11.49c0-.24-.21-.44-.45-.45-.51-.02-1.01,.18-1.37,.54l-1.17,1.17-3.17-.61c-.21-.04-.42,.03-.57,.17l-.63,.63s-.06,.1-.05,.16c.01,.06,.06,.11,.11,.13l2.9,.99-1.38,1.63-1.16-.29c-.16-.04-.33,0-.45,.12l-.19,.19s-.05,.09-.05,.14c0,.05,.03,.1,.07,.13l.98,.72c-.08,.22-.03,.45,.14,.61,.16,.16,.39,.21,.61,.14l.72,.98s.08,.07,.13,.07c.05,0,.1-.02,.14-.05l.19-.19c.12-.12,.16-.29,.12-.45l-.29-1.16,1.63-1.38,.99,2.89c.02,.06,.07,.1,.13,.11,.06,.01,.12,0,.16-.05l.63-.63c.15-.15,.22-.37,.17-.57l-.61-3.16,1.17-1.17c.36-.36,.56-.86,.54-1.37Z"/>
    </g>
  </g>
</svg>