<svg width="93" height="73" viewBox="0 0 93 73" fill="none" xmlns="http://www.w3.org/2000/svg">
<g id="magic" clip-path="url(#clip0_8_47)">
<g id="Layer 1">
<g id="Clip path group">
<mask id="mask0_8_47" style="mask-type:luminance" maskUnits="userSpaceOnUse" x="0" y="0" width="93" height="73">
<g id="clippath">
<path id="Vector" d="M93 0.595703H0V72.3852H93V0.595703Z" fill="white"/>
</g>
</mask>
<g mask="url(#mask0_8_47)">
<g id="Group">
<path id="Vector_2" d="M74.0458 48.9443C71.9644 49.5186 68.5987 48.8592 66.4066 48.8167C60.8708 48.6891 55.3351 48.3913 49.7994 47.9658C38.7501 47.115 27.723 45.7111 16.8287 43.7329C14.083 43.2224 10.3408 42.2652 9.38869 39.4149C8.37012 36.3306 9.03441 32.0126 9.30012 28.8433C9.65441 24.738 10.3851 20.6752 11.2708 16.655C11.7801 14.3365 12.3558 12.0179 12.9316 9.72067C12.998 9.46542 13.0644 9.21017 13.1308 8.95492C13.1973 8.59331 13.308 8.2317 13.3966 7.8701C13.7951 6.31732 14.2158 4.70073 15.323 3.53082C18.113 0.574161 22.9844 1.95677 26.5716 2.31838C31.8637 2.85015 37.1337 3.48828 42.4037 4.08387C53.8516 5.33885 65.2994 6.61511 76.7473 7.89137C77.7437 7.99772 78.8066 8.12535 79.6037 8.74221C80.9987 9.78448 80.9987 11.8052 80.8658 13.5069C80.8216 14.1025 80.7551 14.6768 80.7108 15.2724C80.5116 17.5909 80.268 19.9095 80.0244 22.228C79.2051 29.4814 78.1866 36.7135 76.9244 43.9031C76.6144 45.6898 76.1273 48.4338 74.0901 48.9868L74.0458 48.9443Z" fill="#6571B7"/>
<path id="Vector_3" d="M87.9958 25.589C88.3057 25.6954 88.5936 25.8868 88.815 26.1634C89.3465 26.8653 90.9408 39.8406 91.295 42.0953C92.0479 47.1153 92.5793 52.1565 92.8893 57.219C92.9336 57.9634 92.9557 58.8143 92.4465 59.3886C91.9593 59.9416 91.14 60.0905 90.3872 60.1969C68.5986 63.1748 46.6772 65.3657 24.7115 66.7271C23.8479 66.7909 22.8958 66.8122 22.1872 66.3442C21.2129 65.7061 21.0136 64.4298 20.925 63.3025L18.3343 33.2253C18.2236 32.0554 19.0872 30.9919 20.305 30.8217C23.4715 30.3325 26.5715 29.8645 29.8043 29.6305C34.5429 29.3115 39.2815 28.9711 43.9979 28.6521C53.4308 27.9927 62.8636 27.3545 72.2965 26.6951C74.71 26.525 77.1236 26.2697 79.5372 26.057C81.1536 25.9294 82.7922 25.7805 84.4086 25.6741C85.4493 25.6103 86.955 25.2062 88.0179 25.589H87.9958Z" fill="#75BAA3"/>
<path id="Vector_4" d="M65.7421 46.8174C65.1221 49.8166 62.8192 52.4116 59.8964 53.6454C57.9035 54.4749 55.6449 54.7089 53.5414 54.1984C49.4892 53.2199 46.4556 49.2848 46.6328 45.2646C46.9871 38.1176 57.0399 33.991 62.7749 38.543C65.2328 40.4999 66.3621 43.8182 65.7421 46.8174ZM88.8592 42.4356C88.7706 41.9038 88.6378 40.8402 88.4606 39.4789C88.2835 38.2239 88.0399 36.3521 87.7742 34.4164C85.8478 34.2888 83.9878 33.6719 82.4821 32.5233C81.1314 31.481 80.1792 30.0133 79.7142 28.3967C78.8064 28.4818 77.8985 28.5669 76.9906 28.652C75.4849 28.8009 73.9571 28.9285 72.4514 29.0349L29.9592 31.9915C29.7378 31.9915 29.5163 32.0341 29.2949 32.0553C29.3392 32.3319 29.3835 32.5871 29.3613 32.8849C29.3392 34.7993 28.5863 36.6924 27.2356 38.1176C25.7521 39.6916 23.6485 40.6488 21.4342 40.9679L22.8071 56.8573C24.0913 56.8147 25.3756 57.0062 26.5492 57.5167C29.2285 58.6866 31.1328 61.1753 31.8635 63.9192C48.6478 62.7281 65.4985 61.0689 82.1942 58.9205C82.4156 56.0277 83.8992 53.1774 86.4014 51.5608C87.4421 50.9014 88.6378 50.4972 89.8556 50.3484C89.5899 47.7108 89.2578 45.0732 88.8592 42.4568V42.4356Z" fill="#519E82"/>
<path id="Vector_5" d="M27.8114 57.7721C27.5678 56.6448 26.7928 55.6876 25.8407 55.0069C24.8886 54.3263 23.7593 53.9008 22.6078 53.5818C20.5043 52.9649 18.3121 52.6459 16.12 52.5182C15.2786 52.4757 14.4593 52.4544 13.6178 52.4544C10.8721 52.4544 8.03785 52.4331 5.46927 53.4542C4.11856 53.9859 2.83427 54.7942 2.05927 55.9641C1.54999 56.7724 1.32856 57.7721 1.48356 58.6655C1.41713 58.7293 1.3507 58.7719 1.30642 58.8357C0.354275 59.878 -0.0664397 61.4733 0.597846 62.7283C0.885703 63.3026 1.37285 63.728 1.92642 64.0896C1.57213 64.3874 1.26213 64.7065 0.996417 65.0894C0.199275 66.2593 0.0442746 67.8971 0.885703 69.0458C1.70499 70.1518 3.18856 70.5773 4.56142 70.8751C7.72785 71.577 10.9386 72.1513 14.1936 72.2789C17.4486 72.4066 20.7478 72.045 23.7814 70.9814C25.5971 70.3433 27.0807 69.4499 26.66 67.3015C26.5714 66.8336 26.3721 66.4082 26.1286 66.004C26.3057 65.6211 26.3943 65.1744 26.3721 64.6001C26.3278 63.4515 25.73 62.3879 24.8886 61.5797C24.8886 61.5797 24.8443 61.5584 24.8443 61.5371C24.8886 61.5371 24.9107 61.5158 24.955 61.4946C26.7486 60.8352 28.2321 59.8992 27.7893 57.7721H27.8114ZM16.895 27.3972C16.6293 26.9931 16.6736 26.4826 16.7178 25.9933C16.8286 24.8873 16.5407 21.9519 17.8028 21.4626C18.3786 21.2287 19.6186 21.4626 20.2386 21.4626C21.7886 21.4626 23.3164 21.5903 24.8443 21.803C25.3757 21.8881 25.9293 21.9944 26.2836 22.356C26.7707 22.824 26.7707 23.5685 26.7264 24.2066C26.66 25.1425 26.5493 26.0997 26.4164 27.0356C26.3278 27.5461 26.2171 28.0779 25.8407 28.4182C25.3093 28.9075 24.4678 28.8437 23.7593 28.7586C22.0986 28.5671 20.4157 28.3544 18.755 28.163C18.0686 28.0779 17.2714 27.9503 16.9171 27.376L16.895 27.3972Z" fill="#FCE170"/>
<path id="Vector_6" d="M6.11159 54.5814C8.25945 53.9858 10.4737 53.6455 12.7102 53.5817C13.7509 53.5604 14.8137 53.5817 15.8323 53.688C16.9394 53.7944 18.0466 54.0709 19.1537 54.1135C19.3309 54.1135 19.4194 53.8582 19.2423 53.7944C18.268 53.3902 17.1166 53.2839 16.0537 53.1988C14.9244 53.0925 13.8173 53.0712 12.688 53.135C10.4073 53.2414 8.19302 53.6668 6.02302 54.39C5.89016 54.4325 5.93445 54.6452 6.08945 54.6027L6.11159 54.5814ZM25.398 55.5812C26.3944 58.3464 16.2087 58.0486 14.5702 58.0273C12.6437 57.9848 10.7394 57.9422 8.81302 57.7933C7.88302 57.7082 2.32516 57.4105 3.52087 55.4961C3.56516 55.411 3.4323 55.3046 3.36587 55.3897C2.92302 55.8789 2.9673 56.4745 3.41016 56.9638C4.07445 57.687 5.38087 57.8359 6.31087 58.006C8.92373 58.4953 11.603 58.5165 14.2602 58.6016C16.873 58.6654 19.508 58.6654 22.0987 58.2613C23.1173 58.0911 24.468 57.9635 25.3094 57.3254C25.9073 56.8787 26.2173 56.0704 25.7523 55.4323C25.6194 55.2621 25.2873 55.3472 25.3759 55.5812H25.398ZM2.8123 61.7285C3.18873 61.8774 3.56516 62.005 3.94159 62.1113C4.73873 62.324 5.53587 62.4304 6.35516 62.4942C6.57659 62.4942 6.55445 62.2177 6.35516 62.1752C5.58016 62.0688 4.8273 61.8774 4.09659 61.6434C3.7423 61.5158 3.38802 61.4094 3.03373 61.2605C2.72373 61.1329 2.32516 60.8776 1.97087 60.8989C1.83802 60.8989 1.74944 61.0265 1.81587 61.1541C2.01516 61.4732 2.5023 61.6008 2.83445 61.7497L2.8123 61.7285ZM12.8209 62.7495C14.7916 62.8771 16.7623 62.8771 18.7109 62.6857C20.6816 62.5155 22.7409 62.2815 24.5787 61.5796C24.7559 61.5158 24.7559 61.1967 24.5344 61.218C22.6302 61.4307 20.7702 61.8561 18.8659 62.0263C17.0059 62.1964 15.1237 62.239 13.2637 62.1539C9.52159 61.9837 5.58016 61.4094 2.28087 59.6226C2.14802 59.5376 2.0373 59.729 2.14802 59.8353C5.22587 61.8774 9.1673 62.4942 12.8209 62.7282V62.7495ZM25.2652 64.7277C23.4716 64.9191 21.7002 65.4934 19.9066 65.7487C17.958 66.0252 16.0094 66.1315 14.0387 66.089C10.1416 66.0252 6.39945 65.2807 2.63516 64.3448C2.52445 64.3235 2.41373 64.4937 2.54659 64.5575C6.0673 66.0039 10.0752 66.5995 13.8837 66.7059C15.8766 66.7484 17.8694 66.6421 19.8402 66.3868C21.6559 66.1528 23.7152 65.9188 25.3537 65.1318C25.5309 65.0467 25.4644 64.7277 25.243 64.7489L25.2652 64.7277ZM23.3387 67.3865C22.5637 67.5354 21.833 67.8545 21.0802 68.0885C20.3494 68.3012 19.6187 68.4714 18.8659 68.599C17.3159 68.8755 15.6994 68.9819 14.1052 68.918C13.9944 68.918 13.9944 69.0882 14.1052 69.0882C15.6994 69.2584 17.2937 69.2371 18.888 68.9819C19.663 68.8542 20.438 68.7053 21.213 68.4926C21.988 68.2799 22.7852 68.0672 23.4494 67.6205C23.5823 67.5354 23.4937 67.344 23.3387 67.3865ZM6.66516 67.9821C6.04516 67.8545 5.4473 67.7056 4.84945 67.5567C3.63159 67.2589 2.43587 66.8973 1.2623 66.4932C1.12944 66.4506 1.01873 66.6633 1.15159 66.7271C2.30302 67.2164 3.49873 67.6418 4.71659 67.9821C5.31445 68.1523 5.93445 68.3012 6.5323 68.4288C7.08587 68.5564 7.7723 68.7266 8.34802 68.6415C8.45873 68.6415 8.45873 68.4926 8.37016 68.4288C7.86087 68.1736 7.21873 68.0885 6.66516 67.9821ZM16.6294 39.2663C16.0537 39.2238 15.478 39.1387 14.9244 39.0749C13.773 38.9047 12.6216 38.7346 11.4702 38.4793C11.2487 38.4368 11.138 38.7558 11.3816 38.8196C12.533 39.1812 13.6844 39.479 14.8802 39.6705C15.4559 39.7556 16.0537 39.8406 16.6294 39.8832C16.9394 39.9045 17.2273 39.947 17.5373 39.947C17.6923 39.947 17.8252 39.947 17.958 39.947C17.9802 40.3512 18.0023 40.7553 18.0466 41.1594C18.1352 41.9465 18.1573 42.8611 18.5337 43.5631C18.6002 43.6907 18.8216 43.6694 18.8437 43.5205C19.0209 42.7335 18.7994 41.8614 18.7109 41.0531C18.6223 40.181 18.5559 39.3089 18.5116 38.4155C18.423 36.6713 18.3787 34.9058 18.4673 33.1403C18.4673 32.8638 18.0466 32.8638 18.0244 33.1403C17.9137 34.3315 17.8694 35.5014 17.8473 36.6925C17.6037 36.65 17.3602 36.6287 17.1166 36.6075C16.7844 36.5649 16.4302 36.5436 16.098 36.5011C15.4116 36.4373 14.7252 36.3948 14.0387 36.3309C13.7287 36.3097 13.6623 36.7989 13.9723 36.8414C14.6587 36.9265 15.3452 37.0329 16.0094 37.118C16.3416 37.1605 16.6959 37.203 17.028 37.2456C17.2937 37.2669 17.5594 37.3307 17.8252 37.3307C17.8252 37.7348 17.8252 38.139 17.8252 38.5218C17.8252 38.7984 17.8694 39.0536 17.8694 39.3089C17.7366 39.3089 17.6259 39.3089 17.493 39.2876C17.183 39.2876 16.8952 39.2451 16.5852 39.2238L16.6294 39.2663ZM80.6002 58.7718C78.2973 58.7718 75.9502 59.2185 73.6694 59.495C71.3666 59.7928 69.0416 60.0693 66.7387 60.3671C62.1994 60.9414 57.638 61.4945 53.1209 62.239C52.9216 62.2602 52.9659 62.5793 53.1652 62.558C57.793 62.1539 62.4209 61.5796 67.0266 61.0052C69.3295 60.7075 71.6544 60.4309 73.9573 60.1331C76.1716 59.8566 78.4966 59.729 80.6444 59.1547C80.8659 59.0909 80.8216 58.7505 80.578 58.7505L80.6002 58.7718ZM87.0216 50.7526C86.3352 50.8377 85.6487 51.3695 85.1395 51.7949C84.5637 52.2842 84.0544 52.8372 83.6116 53.4541C82.7259 54.6878 82.2387 56.1129 82.1502 57.5806C82.1502 57.8359 82.5266 57.8146 82.5487 57.5806C82.7259 56.2193 83.2794 54.9005 84.0987 53.7731C84.4973 53.2201 84.9623 52.7096 85.4937 52.2629C85.7594 52.0289 86.0473 51.8162 86.3352 51.6035C86.6009 51.412 86.933 51.2419 87.1544 50.9866C87.2209 50.9015 87.1987 50.7101 87.0437 50.7314L87.0216 50.7526ZM80.4009 30.2687C80.6666 31.4599 81.4416 32.5022 82.4602 33.2254C82.9695 33.587 83.5673 33.8635 84.1652 34.0337C84.7409 34.2038 85.4494 34.3315 86.003 34.0337C86.1137 33.9699 86.1359 33.7997 86.003 33.7359C85.4937 33.5232 84.918 33.5232 84.3866 33.3743C83.833 33.2254 83.3237 32.9914 82.8587 32.6936C81.9287 32.0767 81.1537 31.1834 80.7773 30.1624C80.6887 29.9284 80.3344 30.0135 80.4009 30.2687ZM30.3802 60.0693C30.048 59.3248 29.6273 58.6229 29.0516 58.0486C28.6309 57.6444 28.1437 57.3041 27.6123 57.0701C27.723 57.3041 27.7894 57.5381 27.8337 57.7721C27.8337 57.8571 27.8559 57.921 27.8559 57.9848C28.1437 58.1762 28.3873 58.3889 28.6087 58.6442C29.0959 59.1972 29.4723 59.8566 29.7602 60.5373C29.893 60.8776 30.0037 61.218 30.1366 61.537C30.2694 61.8348 30.358 62.2815 30.6016 62.5155C30.7123 62.6431 30.9559 62.5793 31.0002 62.4091C31.0666 62.0475 30.9116 61.6008 30.8009 61.2392C30.6902 60.8351 30.5352 60.4309 30.358 60.0481L30.3802 60.0693ZM22.6302 53.5817C22.8073 53.6242 22.9623 53.688 23.1394 53.7306C23.1394 53.688 23.1394 53.6668 23.1394 53.6242C23.0066 52.348 22.8737 51.0504 22.7409 49.7742C22.4752 47.328 22.1652 44.8819 21.8109 42.457C21.7887 42.2655 21.4344 42.3081 21.4566 42.4995C21.5894 44.9669 21.7666 47.4557 22.0102 49.9231C22.1209 51.1355 22.2316 52.3054 22.3644 53.4966C22.453 53.5179 22.5416 53.5391 22.6523 53.5817H22.6302ZM63.373 57.453C62.908 57.5381 62.443 57.6019 62.0002 57.687C61.7566 57.7295 61.8673 58.0699 62.0887 58.0273C62.5316 57.9635 62.9966 57.8784 63.4394 57.8146C63.8823 57.7508 64.3473 57.687 64.768 57.5381C64.9009 57.4955 64.8787 57.2828 64.7237 57.2828C64.2587 57.2828 63.7937 57.3679 63.3509 57.453H63.373ZM55.6673 58.5165C54.1616 58.4527 52.6559 58.6867 51.1723 58.8569C49.733 59.0058 48.2716 59.1547 46.8323 59.3036C43.8873 59.6226 40.9202 59.9842 37.9752 60.3458C37.7759 60.3671 37.7537 60.6862 37.9752 60.6649C40.9866 60.4097 43.9759 60.1544 46.9652 59.8779C48.4709 59.729 49.9544 59.5801 51.4602 59.4099C52.8773 59.261 54.3387 59.1972 55.7116 58.8356C55.8887 58.7931 55.8444 58.5378 55.6673 58.5165ZM48.4487 57.6657C49.8659 57.5806 51.3273 57.6019 52.7223 57.3466C52.9659 57.3041 52.8773 57.0063 52.678 56.985C51.1945 56.8149 49.6445 56.985 48.1609 57.0701C46.6994 57.1552 45.2602 57.2616 43.7987 57.3892C40.9202 57.6444 38.0637 57.9635 35.2073 58.4102C35.008 58.4527 35.0523 58.7931 35.2516 58.7718C38.1966 58.4953 41.1416 58.1975 44.0866 57.9848C45.548 57.8784 46.9873 57.7721 48.4487 57.7083V57.6657ZM74.533 31.5875C75.2416 31.5237 76.083 31.545 76.7694 31.2897C76.9244 31.2259 76.9687 30.9919 76.7694 30.9707C76.0609 30.8218 75.2637 30.9707 74.533 31.0345C73.7137 31.0983 72.8944 31.1834 72.0752 31.2472C70.5252 31.3748 68.953 31.5024 67.403 31.7151C67.1816 31.7577 67.2259 32.098 67.4473 32.098C69.0194 32.0768 70.5916 31.9066 72.1637 31.779C72.9609 31.7151 73.7359 31.6513 74.533 31.5875ZM82.3273 42.4144C82.4823 42.3081 82.4159 42.1166 82.2387 42.0954C81.6187 42.0316 80.9102 42.223 80.3123 42.3294C79.648 42.457 78.9837 42.5846 78.2973 42.691C76.9244 42.9249 75.5516 43.1376 74.1787 43.3078C73.8466 43.3504 73.8244 43.8609 74.1787 43.8396C75.5737 43.7332 76.9466 43.5631 78.3194 43.3716C78.9837 43.2653 79.6702 43.1589 80.3344 43.0313C80.9766 42.9037 81.7737 42.776 82.3273 42.4357V42.4144ZM69.883 56.2831C71.3445 56.3469 72.8059 56.3469 74.2673 56.2831C74.9759 56.2406 75.7066 56.198 76.4152 56.1129C77.0573 56.0278 77.788 55.9853 78.3637 55.7301C78.4966 55.6662 78.408 55.4961 78.2973 55.4748C77.6109 55.411 76.858 55.5812 76.1716 55.6662C75.4852 55.7513 74.7987 55.8151 74.1123 55.8577C72.7173 55.964 71.3002 56.0066 69.883 55.9853C69.6837 55.9853 69.6837 56.2831 69.883 56.2831ZM46.5887 33.3317C45.4152 33.2254 44.1752 33.4381 43.0016 33.5232C41.8502 33.6083 40.6987 33.6933 39.5473 33.7784C37.2002 33.9273 34.8309 34.055 32.4616 34.1826C32.1737 34.1826 32.1737 34.608 32.4616 34.6293C34.8752 34.6505 37.2666 34.5867 39.6802 34.4378C40.8759 34.374 42.0716 34.2677 43.2894 34.1613C44.3966 34.055 45.5923 34.0124 46.6552 33.6721C46.8545 33.6083 46.8102 33.353 46.6109 33.3317H46.5887ZM38.7944 47.2004C39.5252 47.1153 40.4109 47.1366 41.0752 46.8175C41.2302 46.7537 41.1859 46.4772 41.0309 46.4559C40.3002 46.307 39.4366 46.4985 38.7059 46.5623C37.8644 46.6474 37.0009 46.7537 36.1594 46.8388C34.543 47.009 32.8823 47.1366 31.288 47.4557C31.0666 47.4982 31.1109 47.8385 31.3323 47.8385C32.993 47.8385 34.6759 47.6045 36.3366 47.4344C37.1559 47.3493 37.9752 47.2855 38.7944 47.1791V47.2004ZM51.2387 52.8159C52.1466 53.2839 53.1209 53.5817 54.1395 53.7306C55.0473 53.8582 56.243 53.9433 57.0844 53.5391C57.2173 53.4753 57.1952 53.2201 57.0402 53.1988C56.0216 53.0499 54.9809 53.1988 53.9623 52.9648C52.8995 52.7521 51.8587 52.3267 50.9509 51.7524C49.1352 50.6037 47.8952 48.7744 47.4744 46.7324C46.5887 42.5421 49.4452 38.5006 53.6523 37.2881C53.8737 37.2243 53.7852 36.9265 53.5637 36.9691C50.0209 37.6285 47.1866 40.3937 46.633 43.8183C46.0573 47.4131 47.8952 51.093 51.2609 52.7947L51.2387 52.8159ZM60.4723 26.8866C54.5602 27.2057 48.648 27.5673 42.7359 27.9715C39.3923 28.2054 36.0709 28.5032 32.7273 28.8648C32.5059 28.8648 32.5059 29.2264 32.7273 29.2052C43.8652 28.7159 54.9809 27.8864 66.1187 27.3333C66.8716 27.2908 67.6023 27.2695 68.3552 27.227C69.4402 27.1844 70.5252 27.1206 71.6323 27.0781C72.208 27.0568 72.7837 27.0143 73.3595 26.993C74.998 26.9079 76.6809 26.9505 78.2973 26.6314C78.6073 26.5676 78.4966 26.1847 78.2309 26.1634C76.7916 25.9933 75.2859 26.1634 73.8466 26.206C72.3852 26.2698 70.9016 26.3336 69.4402 26.3974C68.4216 26.4399 67.403 26.5038 66.4066 26.5463C63.838 26.2698 61.2916 26.0145 58.7452 25.738C52.8552 25.1211 46.9873 24.5256 41.0973 23.9087C37.7537 23.5684 34.4102 23.3344 31.0666 23.0579C30.7787 23.0579 30.8009 23.4407 31.0666 23.4833C41.0973 24.7595 51.128 25.7805 61.203 26.8016C60.9594 26.8016 60.738 26.8228 60.4944 26.8441L60.4723 26.8866ZM46.4116 19.4843C39.9237 18.9738 33.4359 18.4208 26.948 17.889C23.693 17.6338 20.4602 17.3573 17.2052 17.0807C15.2787 16.9318 13.2637 16.868 11.2709 16.634C11.7802 14.3155 12.3559 11.997 12.9316 9.69971C14.5259 9.82733 16.1202 9.9975 17.6923 10.1251C20.9473 10.3804 24.1802 10.6356 27.4352 10.8909C33.923 11.4227 40.4109 11.9332 46.9209 12.4649C53.4087 12.9754 59.8966 13.5285 66.3845 14.039C69.6395 14.3155 72.8723 14.5708 76.1273 14.826C77.6552 14.9536 79.183 15.0813 80.7109 15.2089C80.5116 17.5274 80.268 19.846 80.0244 22.1645C78.563 22.0369 77.1237 21.9305 75.6623 21.8242C72.4073 21.5689 69.1745 21.3136 65.9194 21.0371L46.4559 19.4631L46.4116 19.4843Z" fill="#403651"/>
</g>
</g>
</g>
</g>
</g>
<defs>
<clipPath id="clip0_8_47">
<rect width="93" height="71.7895" fill="white" transform="translate(0 0.595703)"/>
</clipPath>
</defs>
</svg>
