<?xml version="1.0" encoding="UTF-8"?>
<svg id="Layer_2" data-name="Layer 2" xmlns="http://www.w3.org/2000/svg" xmlns:xlink="http://www.w3.org/1999/xlink" viewBox="0 0 83.25 27.75">
  <defs>
    <style>
      .cls-1 {
        fill: #fb5f49;
      }

      .cls-2 {
        clip-path: url(#clippath);
      }

      .cls-3 {
        fill: none;
      }

      .cls-4 {
        fill: #625e55;
      }
    </style>
    <clipPath id="clippath">
      <rect class="cls-3" width="83.25" height="27.75"/>
    </clipPath>
  </defs>
  <g id="Layer_1-2" data-name="Layer 1">
    <g class="cls-2">
      <path class="cls-1" d="M3.45,13.9C3.45,8.12,8.14,3.44,13.92,3.44s10.46,4.68,10.46,10.46-4.68,10.46-10.46,10.46S3.45,19.68,3.45,13.9"/>
      <path class="cls-1" d="M69.66,27.8H13.92c-3.71,0-7.2-1.44-9.83-4.07C1.47,21.1,.02,17.61,.02,13.9S1.47,6.7,4.09,4.08C6.71,1.45,10.2,0,13.92,0h55.75c3.71,0,7.2,1.44,9.83,4.07,2.62,2.62,4.07,6.11,4.07,9.83s-1.45,7.2-4.07,9.82c-2.62,2.62-6.11,4.07-9.83,4.07M13.92,1.28C6.96,1.28,1.3,6.94,1.3,13.9s5.66,12.62,12.62,12.62h55.75c6.96,0,12.62-5.66,12.62-12.62s-5.66-12.62-12.62-12.62H13.92Z"/>
      <path class="cls-4" d="M31.21,14.4v3.56h-1.25V9.84h2.36c1.44,0,2.23,.77,2.23,2.18,0,1.19-.62,1.7-1.06,1.87,.67,.29,.95,.86,.95,2.04v.32c0,.87,.04,1.28,.11,1.71h-1.23c-.12-.37-.13-1.04-.13-1.73v-.29c0-1.11-.24-1.54-1.22-1.54h-.75m0-1.03h.8c.92,0,1.27-.44,1.27-1.3,0-.74-.35-1.19-1.15-1.19h-.93v2.5Z"/>
      <polyline class="cls-4" points="39.61 14.25 36.97 14.25 36.97 16.86 39.92 16.86 39.76 17.96 35.72 17.96 35.72 9.84 39.74 9.84 39.74 10.95 36.97 10.95 36.97 13.15 39.61 13.15 39.61 14.25"/>
      <path class="cls-4" d="M42.23,15.73l-.47,2.23h-1.26l1.91-8.12h1.64l1.94,8.12h-1.33l-.47-2.23h-1.96m1.73-1.1c-.36-1.71-.62-2.89-.75-3.62h-.03c-.1,.73-.39,2.04-.72,3.62h1.5Z"/>
      <path class="cls-4" d="M46.75,9.84h2.01c2.02,0,2.84,1.33,2.84,3.88,0,2.75-.77,4.24-2.96,4.24h-1.89V9.84m1.27,7.08h.6c1.26,0,1.67-.97,1.67-3.19,0-1.97-.42-2.83-1.66-2.83h-.61v6.02Z"/>
      <path class="cls-4" d="M59.98,14.79c0-1.43,.02-2.99,.05-3.89h-.03c-.29,1.5-.84,4.45-1.41,7.06h-1.16c-.43-2.37-1-5.54-1.27-7.08h-.04c.05,.95,.08,2.68,.08,4.08v3h-1.16V9.84h1.88c.5,2.35,.97,4.9,1.14,6.04h.01c.16-1.03,.77-3.79,1.27-6.04h1.85v8.12h-1.22v-3.17"/>
      <path class="cls-4" d="M67.49,13.83c0,2.9-.76,4.26-2.59,4.26-1.72,0-2.52-1.33-2.52-4.27s.93-4.11,2.58-4.11c1.74,0,2.53,1.32,2.53,4.12m-3.81-.02c0,2.06,.35,3.21,1.26,3.21s1.26-1.09,1.26-3.21-.34-3.03-1.26-3.03-1.25,1.08-1.25,3.02Z"/>
      <path class="cls-4" d="M69.94,14.4v3.56h-1.26V9.84h2.36c1.44,0,2.23,.77,2.23,2.18,0,1.19-.62,1.7-1.06,1.87,.67,.29,.95,.86,.95,2.04v.32c0,.87,.04,1.28,.11,1.71h-1.23c-.12-.37-.13-1.04-.13-1.73v-.29c0-1.11-.24-1.54-1.22-1.54h-.75m0-1.03h.8c.92,0,1.27-.44,1.27-1.3,0-.74-.35-1.19-1.15-1.19h-.93v2.5Z"/>
      <polyline class="cls-4" points="78.34 14.25 75.7 14.25 75.7 16.86 78.65 16.86 78.49 17.96 74.45 17.96 74.45 9.84 78.46 9.84 78.46 10.95 75.7 10.95 75.7 13.15 78.34 13.15 78.34 14.25"/>
      <path class="cls-4" d="M16.32,13.27l-.62-.62h0s-2.94-2.93-2.94-2.93c-.35-.34-.9-.34-1.25,0-.34,.35-.34,.9,0,1.25l2.94,2.94-2.94,2.94c-.34,.35-.34,.9,0,1.25,.35,.34,.9,.34,1.25,0l2.94-2.94h0s.62-.62,.62-.62c.17-.17,.26-.4,.26-.63s-.09-.45-.26-.63"/>
    </g>
  </g>
</svg>